<svg fill="#f5f5f5" xmlns="http://www.w3.org/2000/svg"  viewBox="0 0 24 24" width="24px" height="24px"><path d="M18.772,6l-0.55,1.684c0.606,0.861,0.989,1.888,1.1,2.991c0.222-0.036,1.931,0.093,2.475,0.344L23,10.469l-2-0.531l1.609-1.428l-2.25,0.178L21,6.75l-1.703,0.922L18.772,6z"/><path d="M13.1,7.1c-2.347,0-4.451,1.453-5.053,3.609c-0.4-0.377-0.954-0.619-1.547-0.619c-1.234,0-2.234,1.001-2.234,2.234c0,0.09,0.021,0.199,0.034,0.275c-0.103-0.009-0.204-0.008-0.309,0C1.917,12.755,1,14.336,1,15.9c0,0.427,0.052,0.817,0.138,1.1h21.553C22.886,16.595,23,16.14,23,15.659c0-1.701-1.601-3.059-3.3-3.059c-0.758,0-1.216,0.268-1.753,0.722c0.097-0.393,0.138-0.814,0.138-1.237C18.084,9.258,15.925,7.1,13.1,7.1z"/></svg>