<?xml version="1.0" encoding="UTF-8"?>
<svg xmlns="http://www.w3.org/2000/svg" xmlns:xlink="http://www.w3.org/1999/xlink" viewBox="0 0 24 24" width="24px" height="24px">
<g id="surface136330754">
<path style=" stroke:none;fill-rule:nonzero;fill:rgb(90.588236%,29.803923%,23.529412%);fill-opacity:1;" d="M 12 2 C 6.488281 2 2 6.488281 2 12 C 2 17.511719 6.488281 22 12 22 C 17.511719 22 22 17.511719 22 12 C 22 6.488281 17.511719 2 12 2 Z M 12 4 C 16.429688 4 20 7.570312 20 12 C 20 13.851562 19.371094 15.550781 18.316406 16.902344 L 7.097656 5.679688 C 8.449219 4.628906 10.148438 4 12 4 Z M 5.679688 7.097656 L 16.902344 18.316406 C 15.550781 19.371094 13.851562 20 12 20 C 7.570312 20 4 16.429688 4 12 C 4 10.148438 4.628906 8.449219 5.683594 7.097656 Z M 5.679688 7.097656 "/>
</g>
</svg>
